<svg xmlns="http://www.w3.org/2000/svg"  viewBox="0 0 24 24" width="24px" height="24px"><path d="M12.5995159 12.9365234c-.2431641-.1367188-.5458984-.0449219-.6791992.1962891-.5004883.9091797-.9086914 1.8535156-1.2128906 2.8066406-.0834961.2636719.0615234.5449219.324707.6289063.050293.015625.1015625.0234375.1518555.0234375.2119141 0 .4086914-.1357422.4765625-.3476563.2841797-.8925781.6665039-1.7763672 1.1357422-2.6289063C12.929594 13.3730469 12.8412151 13.0693359 12.5995159 12.9365234zM15.683012 8.3779297c-.7563477.7070313-1.4511719 1.4560547-2.0649414 2.2255859-.1723633.2158203-.137207.5302734.0786133.7021484.0922852.0732422.2021484.109375.3115234.109375.1469727 0 .2924805-.0644531.3911133-.1884766.5839844-.7314453 1.2456055-1.4443359 1.9663086-2.1181641.2016602-.1884766.2124023-.5048828.0239258-.7070313C16.2010784 8.2011719 15.8846722 8.1904297 15.683012 8.3779297zM10.6268597 18.5048828c-.0439453-.0058594-.0864258-.0039063-.1269531.0029297-.0419922-.0068359-.0839844-.0087891-.1269531-.0029297-.2749023.0273438-.4746094.2734375-.4467773.5478516C9.9750042 19.5292969 9.9999065 20.0166016 9.9999065 20.5c0 .2763672.2236328.5.5.5s.5-.2236328.5-.5c0-.4833984.0249023-.9707031.0737305-1.4472656C11.101469 18.7783203 10.901762 18.5322266 10.6268597 18.5048828zM4.6659217 7.7919922C4.4579139 7.6113281 4.1419959 7.6337891 3.9608436 7.8427734 3.7801795 8.0517578 3.8026404 8.3671875 4.0116248 8.5478516c.8022461.6953125 1.5400391 1.4345703 2.1918945 2.1982422.0991211.1152344.2392578.1748047.3803711.1748047.1152344 0 .2304688-.0390625.324707-.1201172.2099609-.1787109.2348633-.4951172.0556641-.7050781C6.2792029 9.2949219 5.5062537 8.5195313 4.6659217 7.7919922zM10.2259808 15.7353516c-.3408203-1.0175781-.7988281-2.0205078-1.3618164-2.9824219-.1401367-.2382813-.4467773-.3173828-.684082-.1787109-.2382817.1396484-.3183599.4462891-.1791992.6845703.5283203.9013672.9580078 1.8417969 1.2768555 2.7949219.0698242.2089844.2651367.3408203.4741211.3408203.0527344 0 .105957-.0078125.1586914-.0263672C10.1722698 16.28125 10.3138714 15.9980469 10.2259808 15.7353516zM2.0599647 5.8378906C1.2626015 5.3242188.7455117 5.0634766.723539 5.0527344.4759804 4.9296875.1761757 5.0283203.0531288 5.2763672c-.1235352.2460938-.0239258.546875.2226563.6708984.0048828.0019531.4951172.2490234 1.2421875.7304688C1.601957 6.7324219 1.695707 6.7578125 1.7884804 6.7578125c.1640625 0 .3251952-.0810547.4208983-.2294922C2.3587928 6.296875 2.2918983 5.9873047 2.0599647 5.8378906zM21.4999065 3c-1.378418 0-2.5 1.1210938-2.5 2.5 0 .0974731.0178833.1900024.0288086.2846069-.3001099.190979-.6305542.4086304-1.0053711.6773071-.2241211.1611328-.2758789.4736328-.1147461.6972656.0976563.1367188.2509766.2089844.4067383.2089844.1010742 0 .2026367-.0302734.2910156-.09375.2702637-.1940308.5169067-.3601074.748291-.5114136C19.7900677 7.4996338 20.584013 8 21.4999065 8c1.378418 0 2.5-1.1210938 2.5-2.5S22.8783245 3 21.4999065 3zM21.4999065 7c-.8271484 0-1.5-.6728516-1.5-1.5s.6728516-1.5 1.5-1.5 1.5.6728516 1.5 1.5S22.327055 7 21.4999065 7z"/></svg>