<svg xmlns="http://www.w3.org/2000/svg"  viewBox="0 0 64 64" width="48px" height="48px"><path d="M 18.667969 12 C 16.476969 12 14.763484 12.720891 13.771484 13.712891 C 12.779484 14.704891 12.015 16.206969 12 18.667969 L 12 45.332031 C 12 47.157031 12.508187 49.026766 13.742188 50.259766 C 14.976188 51.492766 16.760969 52 18.667969 52 L 45.332031 52 C 46.956031 52 48.917 51.597625 50.25 50.265625 C 51.583 48.931625 52 47.075984 52 45.333984 L 52 18.667969 C 52 16.437969 51.312625 14.781375 50.265625 13.734375 C 49.218625 12.687375 47.507984 12 45.333984 12 L 18.667969 12 z M 44.617188 16 C 45.718234 15.999953 46.549172 16.084328 47.232422 16.767578 C 48.143422 17.678578 47.990234 18.885125 47.990234 20.578125 L 47.990234 24 L 40 24 L 40 16.009766 L 43.421875 16.009766 C 43.853375 16.009766 44.250172 16.000016 44.617188 16 z M 19.277344 16.005859 C 19.65825 16.00275 20.085719 16.009766 20.574219 16.009766 L 24 16.009766 L 24 24 L 16.003906 24 L 16.003906 20.578125 C 16.003906 18.654125 15.893672 17.637578 16.763672 16.767578 C 17.416172 16.114328 18.134625 16.015187 19.277344 16.005859 z M 28 16.009766 L 36 16.009766 L 36 24 L 28 24 L 28 16.009766 z M 16.003906 28 L 30 28 L 30 36 L 16.003906 36 L 16.003906 28 z M 34 28 L 47.990234 28 L 47.990234 36 L 34 36 L 34 28 z M 16.003906 40 L 24 40 L 24 47.994141 L 20.574219 47.994141 C 18.493219 47.994141 17.559859 48.046188 16.755859 47.242188 C 15.951859 46.438188 16.003906 45.608781 16.003906 43.425781 L 16.003906 40 z M 28 40 L 36 40 L 36 47.994141 L 28 47.994141 L 28 40 z M 40 40 L 47.990234 40 L 47.990234 43.425781 C 47.990234 45.371781 48.103422 46.365328 47.232422 47.236328 C 46.361422 48.106328 45.430875 47.994141 43.421875 47.994141 L 40 47.994141 L 40 40 z"/></svg>