<svg xmlns="http://www.w3.org/2000/svg"  viewBox="0 0 64 64" width="48px" height="48px"><path d="M 42.5 14 C 37.813 14 34 18.038 34 23 C 34 27.962 37.813 32 42.5 32 C 47.187 32 51 27.962 51 23 C 51 18.038 47.187 14 42.5 14 z M 21.5 17 C 16.813 17 13 21.038 13 26 C 13 30.962 16.813 35 21.5 35 C 26.187 35 30 30.962 30 26 C 30 21.038 26.187 17 21.5 17 z M 42.5 18 C 44.981 18 47 20.243 47 23 C 47 25.757 44.981 28 42.5 28 C 40.019 28 38 25.757 38 23 C 38 20.243 40.019 18 42.5 18 z M 21.5 21 C 23.981 21 26 23.243 26 26 C 26 28.757 23.981 31 21.5 31 C 19.019 31 17 28.757 17 26 C 17 23.243 19.019 21 21.5 21 z M 42.5 34.138672 C 37.511635 34.138672 32.95324 36.003683 29.931641 39.095703 C 27.449772 37.842539 24.555809 37.136719 21.498047 37.136719 C 14.827047 37.136719 8.9135938 40.463281 6.4335938 45.613281 C 4.9495938 48.696281 7.4023594 52 10.568359 52 L 32.431641 52 C 34.329825 52 36.095397 50.741117 36.75 49 L 53.431641 49 C 56.597641 49 59.049453 45.696281 57.564453 42.613281 C 55.084453 37.463281 49.172 34.136672 42.5 34.138672 z M 42.5 38.136719 C 47.566 38.136719 52.172891 40.633609 53.962891 44.349609 C 54.121891 44.687609 53.745641 45 53.431641 45 L 36.236328 45 C 35.495504 43.655396 34.521371 42.443168 33.351562 41.400391 C 35.638123 39.381999 38.945458 38.136719 42.5 38.136719 z M 21.5 41.136719 C 26.565 41.136719 31.171938 43.633609 32.960938 47.349609 C 33.119938 47.687609 32.741687 48 32.429688 48 L 10.568359 48 C 10.254359 48 9.8791094 47.686656 10.037109 47.347656 C 11.827109 43.632656 16.435 41.136719 21.5 41.136719 z"/></svg>