<?xml version="1.0" encoding="UTF-8"?><svg id="Layer_1" xmlns="http://www.w3.org/2000/svg" xmlns:xlink="http://www.w3.org/1999/xlink" viewBox="0 0 4000 4000"><defs><linearGradient id="linear-gradient" x1="1094.07783" y1="707.12615" x2="2903.93046" y2="3290.03142" gradientUnits="userSpaceOnUse"><stop offset="0" stop-color="#15ede7"/><stop offset="1" stop-color="#09dba9"/></linearGradient></defs><circle cx="2000" cy="2000" r="1588.22105" fill="url(#linear-gradient)"/><path id="C" d="M2375.68433,1248.63159c101.40088,0,199.80908,19.87598,292.48975,59.07715,89.48145,37.84766,169.82812,92.01367,238.80811,160.99316,68.98047,68.98047,123.14648,149.32715,160.99414,238.80859,39.2002,92.68066,59.07666,191.08789,59.07666,292.48926s-19.87646,199.80908-59.07666,292.48975c-37.84766,89.48145-92.01367,169.82812-160.99414,238.80811-68.97998,68.98047-149.32666,123.14648-238.80811,160.99414-92.68066,39.2002-191.08887,59.07666-292.48975,59.07666s-199.80811-19.87646-292.48975-59.07666c-89.48145-37.84766-169.82812-92.01367-238.80762-160.99414-68.98047-68.97998-123.14648-149.32666-160.99414-238.80811-39.2002-92.68066-59.07715-191.08887-59.07715-292.48975h150c0,331.5957,269.77246,601.36865,601.36865,601.36865s601.36865-269.77295,601.36865-601.36865-269.77295-601.36816-601.36865-601.36816v-150Z" fill="#fff"/><path id="R" d="M1624.31567,2751.36841c-101.40088,0-199.80908-19.87598-292.48975-59.07715-89.48145-37.84766-169.82812-92.01367-238.80811-160.99316-68.98047-68.98047-123.14648-149.32715-160.99414-238.80859-19.82489-46.87109-31.48029-87.7395-38.44696-116.75439-10.48688-43.67554-20.67596-103.5896-20.6297-175.73486v-751.36865h150c.5318,102.95569,1.0636,205.91125,1.59534,308.86694,14.84729-23.72375,37.0542-55.38232,68.47546-88.79614,48.06531-51.1134,93.73328-80.80652,125.07373-100.97009,35.9751-23.14539,73.9519-43.19739,113.73438-60.02405,92.68066-39.2002,191.08887-59.07666,292.48975-59.07666s199.80811,19.87646,292.48975,59.07666c89.48145,37.84766,169.82812,92.01367,238.80762,160.99414,68.98047,68.97998,123.14648,149.32666,160.99414,238.80811,39.2002,92.68066,59.07715,191.08887,59.07715,292.48975h-150c0-331.5957-269.77246-601.36865-601.36865-601.36865s-601.36865,269.77295-601.36865,601.36865,269.77295,601.36816,601.36865,601.36816v150Z" fill="#fff"/></svg>