<svg xmlns="http://www.w3.org/2000/svg"  viewBox="0 0 48 48" width="48px" height="48px"><linearGradient id="vlV5CmP5UZ2HpK3ZUe6Hha" x1="21.494" x2="26.481" y1="4.213" y2="43.594" gradientUnits="userSpaceOnUse"><stop offset="0" stop-color="#f44f5a"/><stop offset=".443" stop-color="#ee3d4a"/><stop offset="1" stop-color="#e52030"/></linearGradient><path fill="url(#vlV5CmP5UZ2HpK3ZUe6Hha)" d="M42.535,14.252l-8.787-8.788C32.802,4.52,31.545,4,30.213,4H17.787	c-1.335,0-2.59,0.52-3.535,1.465l-8.787,8.787C4.52,15.197,4,16.452,4,17.787v12.427c0,1.333,0.52,2.59,1.465,3.537l8.787,8.785	C15.197,43.48,16.452,44,17.787,44h12.427c1.333,0,2.59-0.52,3.537-1.465l8.787-8.787C43.48,32.802,44,31.545,44,30.213V17.787	C44,16.452,43.48,15.197,42.535,14.252z"/><path d="M38.133,18.372h-2.836c-0.869,0-1.576,0.707-1.576,1.575v2.349c-0.266-0.945-0.746-1.814-1.399-2.486	c-1.018-1.047-2.397-1.601-3.99-1.601c-1.978,0-3.423,0.771-4.383,1.904v-0.167c0-0.868-0.707-1.575-1.576-1.575h-6.536	c-0.672,0-1.242,0.425-1.469,1.018c-0.207-0.452-0.592-0.812-1.097-0.942c-0.614-0.157-1.337-0.237-2.147-0.237	c-2.914,0-4.796,1.521-4.796,3.873c0,2.488,1.973,3.349,3.279,3.918c0.308,0.134,0.741,0.323,0.951,0.441	c-0.107,0.028-0.274,0.055-0.525,0.055c-0.655,0-1.342-0.342-1.692-0.545c-0.405-0.234-0.909-0.237-1.315-0.004	c-0.405,0.232-0.656,0.667-0.656,1.135v1.119c0,0.722,0.451,1.367,1.121,1.606c0.749,0.267,1.636,0.401,2.663,0.401	c0.005,0,0.01,0,0.015,0c2.075,0,3.204-0.69,3.785-1.271c0.671-0.671,1.012-1.551,1.012-2.615c0-2.521-2.075-3.423-3.315-3.961	c-0.275-0.119-0.653-0.283-0.868-0.383c0.136-0.033,0.308-0.058,0.466-0.058c0.58,0,1.096,0.186,1.428,0.341	c0.408,0.192,0.878,0.161,1.257-0.08c0.289-0.184,0.488-0.468,0.567-0.792c0.278,0.451,0.771,0.754,1.338,0.754h1.169v6.32	c0,0.868,0.707,1.575,1.575,1.575h1.034c0.869,0,1.575-0.707,1.575-1.575v-6.32h1.183c0.171,0,0.333-0.034,0.487-0.085	c-0.251,0.734-0.376,1.511-0.376,2.274c0,2.829,1.782,5.875,5.693,5.875c3.313,0,4.971-2.084,5.543-4.345v2.601	c0,0.868,0.707,1.575,1.576,1.575h1.027c0.869,0,1.575-0.707,1.575-1.575V26.71h0.039c3.333,0,4.85-2.207,4.85-4.257	C42.788,20.929,42.183,18.372,38.133,18.372z M28.271,22.085c0.381,0,1.394,0,1.394,2.176c0,0.772-0.188,2.068-1.448,2.068	c-1.254,0-1.441-1.321-1.441-2.109C26.776,23.423,26.971,22.085,28.271,22.085z M38.495,22.534c0,0.314,0,0.498-0.596,0.521v-1.009	C38.495,22.07,38.495,22.25,38.495,22.534z" opacity=".05"/><path d="M14.463,26.324c0,0.927-0.291,1.688-0.865,2.261c-0.514,0.514-1.527,1.125-3.431,1.125	c-0.005,0-0.009,0-0.014,0c-0.97,0-1.801-0.125-2.496-0.373c-0.472-0.167-0.789-0.624-0.789-1.135v-1.119	c0-0.293,0.151-0.556,0.406-0.701c0.25-0.145,0.562-0.145,0.814,0.003c0.394,0.229,1.171,0.612,1.944,0.612	c0.84,0,1.139-0.257,1.139-0.478c0-0.356-0.516-0.607-1.364-0.977c-1.257-0.549-2.979-1.299-2.979-3.46	c0-2.487,2.219-3.373,4.296-3.373c0.768,0,1.449,0.074,2.023,0.222c0.525,0.136,0.891,0.611,0.891,1.155v0.99	c0,0.279-0.14,0.535-0.375,0.685c-0.234,0.149-0.525,0.167-0.777,0.05c-0.377-0.178-0.968-0.389-1.64-0.389	c-0.238,0-1.125,0.081-1.125,0.478c0,0.321,0.526,0.574,1.328,0.922C12.721,23.374,14.463,24.131,14.463,26.324z M23.449,20.57	v-0.623c0-0.593-0.482-1.075-1.076-1.075h-6.536c-0.593,0-1.076,0.482-1.076,1.075v0.623c0,0.593,0.482,1.075,1.076,1.075h1.669	v6.82c0,0.593,0.482,1.075,1.075,1.075h1.034c0.593,0,1.075-0.482,1.075-1.075v-6.82h1.683	C22.966,21.646,23.449,21.163,23.449,20.57z M31.963,20.158c0.978,1.007,1.537,2.5,1.495,3.994	c-0.073,2.564-1.499,5.558-5.281,5.558c-3.587,0-5.193-2.699-5.193-5.375c0-2.8,1.654-5.625,5.348-5.625	C29.786,18.71,31.042,19.211,31.963,20.158z M30.165,24.261c0-1.775-0.637-2.676-1.894-2.676c-1.851,0-1.995,2.017-1.995,2.635	c0,0.612,0.14,2.609,1.941,2.609C29.975,26.829,30.165,25.033,30.165,24.261z M42.288,22.453c0,1.87-1.345,3.757-4.35,3.757h-0.539	v2.256c0,0.593-0.482,1.075-1.075,1.075h-1.027c-0.593,0-1.076-0.482-1.076-1.075v-8.519c0-0.593,0.482-1.075,1.076-1.075h2.836	C41.567,18.872,42.288,20.819,42.288,22.453z M37.399,23.559h0.356c1.089,0,1.24-0.492,1.24-1.024c0-0.515-0.15-0.99-1.24-0.99	h-0.356V23.559z" opacity=".07"/><path fill="#fff" d="M7.825,28.866c-0.277-0.099-0.457-0.369-0.457-0.664l0-1.119c0-0.241,0.26-0.388,0.468-0.267 c0.498,0.289,1.332,0.681,2.195,0.681c1.6,0,1.639-0.838,1.639-0.978c0-1.684-4.343-1.267-4.343-4.437 c0-2.807,3.236-2.873,3.796-2.873c0.877,0,1.487,0.101,1.899,0.206c0.306,0.078,0.515,0.355,0.515,0.671l0,0.99 c0,0.228-0.234,0.378-0.44,0.281c-0.414-0.194-1.083-0.435-1.852-0.435c-0.247,0-1.625,0.059-1.625,0.978 c0,1.62,4.343,1.23,4.343,4.423c0,2.939-3.32,2.886-3.837,2.886C9.038,29.21,8.294,29.034,7.825,28.866z"/><path fill="#fff" d="M22.373,21.145h-2.182v7.321c0,0.318-0.258,0.575-0.575,0.575h-1.034 c-0.318,0-0.575-0.258-0.575-0.575v-7.321h-2.169c-0.318,0-0.575-0.258-0.575-0.575v-0.623c0-0.318,0.258-0.575,0.575-0.575h6.536 c0.318,0,0.575,0.258,0.575,0.575v0.623C22.949,20.888,22.691,21.145,22.373,21.145z"/><path fill="#fff" d="M28.177,29.21c-3.572,0-4.693-2.844-4.693-4.875c0-2.636,1.574-5.125,4.848-5.125 s4.689,2.703,4.626,4.929S31.749,29.21,28.177,29.21z M28.271,21.085c-2.183,0-2.495,2.191-2.495,3.136 c0,0.958,0.316,3.109,2.441,3.109s2.448-2.106,2.448-3.068C30.665,23.258,30.455,21.085,28.271,21.085z"/><path fill="#fff" d="M36.899,25.71v2.756c0,0.318-0.258,0.575-0.575,0.575h-1.027c-0.318,0-0.575-0.258-0.575-0.575 v-8.519c0-0.318,0.258-0.575,0.575-0.575h2.837c2.436,0,3.655,1.027,3.655,3.082c0,1.7-1.247,3.257-3.85,3.257H36.899z M36.899,21.044v3.014h0.856c1.16,0,1.74-0.508,1.74-1.524c0-0.993-0.58-1.49-1.74-1.49H36.899z"/></svg>