<?xml version="1.0"?><svg xmlns="http://www.w3.org/2000/svg"  viewBox="0 0 128 128" width="64px" height="64px">    <path d="M 64 14 C 36.4 14 14 36.4 14 64 C 14 91.6 36.4 114 64 114 C 91.6 114 114 91.6 114 64 C 114 36.4 91.6 14 64 14 z M 64 20 C 88.3 20 108 39.7 108 64 C 108 88.3 88.3 108 64 108 C 39.7 108 20 88.3 20 64 C 20 39.7 39.7 20 64 20 z M 64 28.099609 C 44.2 28.099609 28.099609 44.2 28.099609 64 C 28.099609 83.8 44.2 99.900391 64 99.900391 C 83.8 99.900391 99.900391 83.8 99.900391 64 C 99.900391 44.2 83.8 28.099609 64 28.099609 z M 64 34.099609 C 80.5 34.099609 93.900391 47.5 93.900391 64 C 93.900391 80.5 80.5 93.900391 64 93.900391 C 47.5 93.900391 34.099609 80.5 34.099609 64 C 34.099609 47.5 47.5 34.099609 64 34.099609 z M 64 42.199219 C 52 42.199219 42.199219 52 42.199219 64 C 42.199219 76 52 85.800781 64 85.800781 C 76 85.800781 85.800781 76 85.800781 64 C 85.800781 52 76 42.199219 64 42.199219 z M 64 48.199219 C 72.7 48.199219 79.800781 55.3 79.800781 64 C 79.800781 72.7 72.7 79.800781 64 79.800781 C 55.3 79.800781 48.199219 72.7 48.199219 64 C 48.199219 55.3 55.3 48.199219 64 48.199219 z M 64 59.199219 A 4.8000002 4.8000002 0 0 0 59.199219 64 A 4.8000002 4.8000002 0 0 0 64 68.800781 A 4.8000002 4.8000002 0 0 0 68.800781 64 A 4.8000002 4.8000002 0 0 0 64 59.199219 z"/></svg>