<svg xmlns="http://www.w3.org/2000/svg" xmlns:xlink="http://www.w3.org/1999/xlink" viewBox="0,0,256,256" width="50px" height="50px" fill-rule="nonzero"><g fill="#000000" fill-rule="nonzero" stroke="none" stroke-width="1" stroke-linecap="butt" stroke-linejoin="miter" stroke-miterlimit="10" stroke-dasharray="" stroke-dashoffset="0" font-family="none" font-weight="none" font-size="none" text-anchor="none" style="mix-blend-mode: normal"><g transform="translate(255.84453,0.17558) rotate(90) scale(5.12,5.12)"><path d="M37.09375,0.09375c-0.77734,0.07422 -1.44141,0.59766 -1.69531,1.33594c-0.25781,0.74219 -0.05859,1.5625 0.50781,2.10156l6.46875,6.46875h-40.375c-0.0625,-0.00391 -0.125,-0.00391 -0.1875,0c-1.10547,0.05078 -1.95703,0.98828 -1.90625,2.09375c0.05078,1.10547 0.98828,1.95703 2.09375,1.90625h40.375l-6.46875,6.46875c-0.52344,0.5 -0.73828,1.24219 -0.55859,1.94531c0.17969,0.69922 0.72266,1.25 1.42188,1.4375c0.69922,0.1875 1.44531,-0.01953 1.94922,-0.53906l11.3125,-11.3125l-11.3125,-11.3125c-0.42187,-0.43359 -1.01953,-0.65234 -1.625,-0.59375zM12.5,26.09375c-0.45312,0.05859 -0.87109,0.26563 -1.1875,0.59375l-11.3125,11.3125l11.3125,11.3125c0.50391,0.51953 1.25,0.72656 1.94922,0.53906c0.69922,-0.1875 1.24219,-0.73828 1.42188,-1.4375c0.17969,-0.70312 -0.03516,-1.44531 -0.55859,-1.94531l-6.46875,-6.46875h40.34375c0.72266,0.01172 1.39063,-0.36719 1.75391,-0.99219c0.36719,-0.62109 0.36719,-1.39453 0,-2.01562c-0.36328,-0.625 -1.03125,-1.00391 -1.75391,-0.99219h-40.34375l6.46875,-6.46875c0.62891,-0.59375 0.80469,-1.52734 0.43359,-2.30859c-0.37109,-0.78125 -1.19922,-1.23828 -2.05859,-1.12891z"></path></g></g></svg>