<svg xmlns="http://www.w3.org/2000/svg"  viewBox="0 0 26 26" width="26px" height="26px"><path d="M 13 0 C 10.257813 0 8 2.257813 8 5 C 8 6.128906 8.390625 7.160156 9.03125 8 L 5 8 C 4.5 8 4.199219 8.289063 4 8.6875 L 0 23.6875 C 0 23.988281 -0.0117188 24.394531 0.1875 24.59375 C 0.386719 24.894531 0.699219 25 1 25 L 25 25 C 25.601563 25 26 24.601563 26 24 C 26 23.800781 26.007813 23.695313 25.90625 23.59375 L 22 8.6875 C 21.800781 8.289063 21.5 8 21 8 L 16.96875 8 C 17.609375 7.160156 18 6.128906 18 5 C 18 2.257813 15.742188 0 13 0 Z M 13 3 C 14.121094 3 15 3.878906 15 5 C 15 6.121094 14.121094 7 13 7 C 11.878906 7 11 6.121094 11 5 C 11 3.878906 11.878906 3 13 3 Z"/></svg>